<?xml version="1.0" encoding="UTF-8"?>
<!DOCTYPE svg PUBLIC "-//W3C//DTD SVG 1.1//EN" "http://www.w3.org/Graphics/SVG/1.1/DTD/svg11.dtd">
<!-- Creator: CorelDRAW 2018 (64-Bit) -->
<svg xmlns="http://www.w3.org/2000/svg" xml:space="preserve" width="3.7727in" height="2.64995in" version="1.1" style="shape-rendering:geometricPrecision; text-rendering:geometricPrecision; image-rendering:optimizeQuality; fill-rule:evenodd; clip-rule:evenodd"
viewBox="0 0 1108.01 778.27"
 xmlns:xlink="http://www.w3.org/1999/xlink">
 <defs>
  <style type="text/css">
   <![CDATA[
    .fil1 {fill:black}
    .fil0 {fill:white}
   ]]>
  </style>
 </defs>
 <g id="Layer_x0020_1">
  <metadata id="CorelCorpID_0Corel-Layer"/>
  <g id="_2047052503056">
   <g>
    <path class="fil0" d="M85.27 249.72c3.41,24.72 22.06,35.07 42.98,43.28 25.72,10.09 45.73,8.54 71.42,0.06 31.78,-10.5 36.33,18.52 35.45,45.43 -2.28,69.97 -3.42,89.84 -11.91,159.05 -1.46,11.91 -0.68,28.38 -6.28,37.02 -15.15,23.33 -57.38,4.71 -110.69,14.18 -49.96,8.87 -65.56,55.13 -68.06,102.74 -1.69,32.24 6.41,45.27 29.27,56.22 76.06,36.43 218.64,35.7 303.38,27.35 44.27,-4.36 111.31,-9.87 132.64,-37.7 11.49,-14.99 22.25,-36.45 26.28,-60.08 2.3,-13.47 2.13,-26.76 -0.53,-39.88 -2.93,-14.43 -7.77,-15.76 -20.94,-21.13 -25.89,-10.56 -75.78,-17.17 -106.38,-21.96 -45.39,-7.11 -38,-42.82 -34.19,-88.51 2.15,-25.78 5.6,-52.51 6.38,-78.22 1.73,-56.49 2.04,-112.83 2.35,-169.37 0.27,-48.96 -6.83,-105.81 -26.91,-144.17 -10.66,-20.37 -25.52,-33.62 -49.56,-35.74 -31.17,-2.76 -42.33,11.5 -55.75,29.59 -3.5,4.72 -5.29,8.52 -8.74,13.43 -4.27,6.07 -38.01,34.82 -45.33,39.91 -10.36,7.21 -19.7,16.15 -23.48,18.56 -13.22,8.43 -59.56,34.83 -65.8,40.45 -13.52,12.18 -18.88,45.77 -15.61,69.5z"/>
    <path class="fil0" d="M875.99 52.06c-22.78,3.31 -52.08,-1.2 -84.52,5.93 -23.1,5.08 -35.61,24.33 -40.66,49.32 -19.37,95.95 74.9,21.29 95.93,80.23 17.7,49.62 -55.99,183.43 4.62,219.61 20.11,12 51.29,16.35 72.58,3.01 34.12,-21.37 34.83,-108.65 29.81,-145.1 -3.53,-25.61 -14.52,-55.99 5.5,-70.68 14.76,-10.83 37.29,-7.91 67.39,-23.71 69.17,-36.31 56.49,-95.75 -23.77,-111.35 -28.26,-5.49 -101.52,-10.95 -126.88,-7.26z"/>
    <path class="fil0" d="M570.68 77.44c-56.39,7.86 -109.96,76.07 -97.39,134.41 7.29,33.83 31.57,41.94 60.77,56.01 25.28,12.18 56.01,28.9 63.58,54.42 10.86,36.61 -34.45,53.6 -66.23,40.51 -42.6,-17.55 -31.9,-62.63 -63.91,-50.6 -14.91,5.6 -17.46,19.18 -20.4,37.91 -10.88,69.33 106.17,120.85 183.92,88.26 29.84,-12.51 46.5,-29.01 59.5,-58.46 14.28,-32.34 22.89,-113.41 -8.44,-139.8 -10.04,-8.45 -21.86,-16.69 -37.9,-21.65 -23.9,-7.39 -62.12,-19.83 -76.06,-40.74 -2.53,-3.8 -7.05,-17.01 -6,-21.95 7.71,-36.33 65.79,-1.6 85.82,-1.24 6.94,0.13 18.09,-4.85 21.33,-8.45 11.91,-13.21 5.13,-52.18 -44.34,-64.81 -15.47,-3.95 -38.1,-6.08 -54.25,-3.83z"/>
   </g>
   <path class="fil1" d="M85.27 249.72c-3.27,-23.73 2.09,-57.32 15.61,-69.5 6.24,-5.62 52.58,-32.02 65.8,-40.45 3.78,-2.41 13.12,-11.36 23.48,-18.56 7.32,-5.09 41.06,-33.85 45.33,-39.91 3.46,-4.91 5.24,-8.71 8.74,-13.43 13.42,-18.09 24.58,-32.35 55.75,-29.59 24.04,2.13 38.89,15.38 49.56,35.74 20.08,38.36 27.18,95.21 26.91,144.17 -0.31,56.54 -0.62,112.88 -2.35,169.37 -0.79,25.72 -4.23,52.44 -6.38,78.22 -3.82,45.69 -11.21,81.4 34.19,88.51 30.6,4.79 80.48,11.4 106.38,21.96 13.18,5.37 18.01,6.7 20.94,21.13 2.66,13.12 2.83,26.41 0.53,39.88 -4.03,23.63 -14.79,45.09 -26.28,60.08 -21.33,27.83 -88.37,33.34 -132.64,37.7 -84.75,8.34 -227.32,9.07 -303.38,-27.35 -22.86,-10.95 -30.96,-23.98 -29.27,-56.22 2.5,-47.61 18.1,-93.87 68.06,-102.74 53.31,-9.47 95.54,9.16 110.69,-14.18 5.61,-8.64 4.82,-25.11 6.28,-37.02 8.49,-69.21 9.63,-89.08 11.91,-159.05 0.88,-26.9 -3.67,-55.92 -35.45,-45.43 -25.69,8.49 -45.7,10.03 -71.42,-0.06 -20.93,-8.21 -39.58,-18.56 -42.98,-43.28zm485.41 -172.28c16.14,-2.25 38.78,-0.12 54.25,3.83 49.47,12.62 56.25,51.6 44.34,64.81 -3.24,3.6 -14.39,8.57 -21.33,8.45 -20.03,-0.36 -78.11,-35.09 -85.82,1.24 -1.05,4.94 3.47,18.16 6,21.95 13.94,20.91 52.16,33.34 76.06,40.74 16.04,4.96 27.86,13.2 37.9,21.65 31.33,26.39 22.71,107.45 8.44,139.8 -13,29.44 -29.66,45.95 -59.5,58.46 -77.75,32.59 -194.8,-18.94 -183.92,-88.26 2.94,-18.73 5.48,-32.3 20.4,-37.91 32.01,-12.03 21.31,33.05 63.91,50.6 31.78,13.09 77.09,-3.9 66.23,-40.51 -7.58,-25.53 -38.31,-42.25 -63.58,-54.42 -29.2,-14.07 -53.48,-22.18 -60.77,-56.01 -12.57,-58.33 41,-126.54 97.39,-134.41zm305.31 -25.38c25.36,-3.69 98.62,1.77 126.88,7.26 80.26,15.6 92.94,75.05 23.77,111.35 -30.1,15.8 -52.63,12.88 -67.39,23.71 -20.02,14.69 -9.03,45.07 -5.5,70.68 5.02,36.45 4.32,123.73 -29.81,145.1 -21.29,13.34 -52.47,8.99 -72.58,-3.01 -60.61,-36.19 13.08,-170 -4.62,-219.61 -21.03,-58.94 -115.3,15.72 -95.93,-80.23 5.05,-25 17.55,-44.24 40.66,-49.32 32.44,-7.13 61.74,-2.62 84.52,-5.93zm108.65 170.94c4.81,-2.41 15.45,-3.82 21.24,-5.29 40.77,-10.34 86.39,-38.89 99.1,-82.01 4.37,-14.83 3.96,-30.54 -0.99,-45.46 -13.03,-39.21 -51.95,-55.99 -89.5,-65.82 -27.28,-7.14 -15.7,-4.56 -43.81,-8.95 -14.99,-2.34 -31.27,-3.99 -47.17,-4.22 -44.15,-0.62 -61.6,4.19 -98.1,6.05 -46.71,2.38 -81.86,10.83 -101.18,55.29 -3.61,8.31 -10.16,18.76 -17.12,34.41 -5.67,-10.42 -5.32,-15.15 -13.08,-24.84 -18.11,-22.6 -43.24,-34.4 -74.02,-39.25 -53.26,-8.4 -84.56,0.22 -118.69,26.29 -22.68,17.33 -52.21,49.9 -62.07,89.73 -12.59,50.91 2.28,91.02 29.8,114.29 -7.18,4.54 -19.94,2.05 -36.67,19.02 -6.24,6.33 -18.08,23.68 -18.47,36.34 -2.27,-18.58 0.29,-52.65 0.38,-73.02 0.1,-23.77 1.26,-50.76 -0.39,-74.16 -2.74,-39.01 -12.96,-89.37 -28.11,-120.3 -9.9,-20.21 -17.47,-29.97 -32.86,-41.89 -31.44,-24.33 -80.87,-25.93 -113.17,-2.54 -18,13.04 -21.82,23.12 -33.18,40.41 -17.64,26.86 -57.65,48.91 -84.29,65.17 -36.44,22.24 -61.17,27.75 -71.54,76.83 -16.05,76 14.53,117.71 79.97,134.62 27.07,6.99 39.95,3.9 66.35,0.25 1.35,45.27 -6.22,128.87 -13.37,174.41 -24,2.05 -45.78,-4.35 -85.53,3.22 -50.19,9.55 -78.62,43.96 -90.74,91.4 -5.94,23.23 -10.44,56.71 -4.98,81.01 11.53,51.34 59.44,66.16 105.24,76.89 52.53,12.31 107.7,17.16 164.25,17.4 57.36,0.24 113.72,-5.22 168.97,-13.84 57.45,-8.96 89.61,-28.75 109.88,-71.14 10.02,-20.97 18.19,-45.58 18.55,-72.14 0.39,-28.82 -5.51,-54.48 -23.27,-67.49 -39.04,-28.6 -140.19,-34.42 -141.67,-38.33 -0.15,-0.39 -0.57,-0.31 -0.83,-0.49 -2.46,-12.13 2.4,-49.76 3.58,-64.34 1.77,-21.72 4.16,-42.53 5.1,-64.59 4.24,5.98 5.35,15.11 18.17,32.32 20.78,27.91 54.17,49.08 90.49,58.97 62.08,16.91 117.1,6.38 159.87,-25.29 38.15,-28.25 55.85,-74.33 59.38,-140.28 1.5,-28.09 -6.12,-61.84 -18.82,-81.59 -13.32,-20.72 -30.71,-29.91 -55.49,-42.94 38.93,-12.99 30.19,-18.89 41.58,-34.31 5.72,13.69 23.72,31.83 38.12,37.87 9.26,3.89 19.94,5.5 30.76,6.65 9,0.95 28.2,0.19 35.11,2.15 6.43,10.86 -7.76,61.79 -10.76,75.62 -16.58,76.48 -24.56,160.19 72.48,178.05 27.18,5 54.38,-0.75 73.08,-13.68 38.76,-26.79 45.67,-88.26 46.8,-134.82 0.72,-29.55 -5.29,-53.84 -8.38,-81.62z"/>
  </g>
 </g>
</svg>
